<?xml version="1.0" encoding="utf-8"?>
<!-- Generator: Adobe Illustrator 16.0.0, SVG Export Plug-In . SVG Version: 6.00 Build 0)  -->
<!DOCTYPE svg PUBLIC "-//W3C//DTD SVG 1.0//EN" "http://www.w3.org/TR/2001/REC-SVG-20010904/DTD/svg10.dtd">
<svg version="1.0" id="Layer_1" xmlns="http://www.w3.org/2000/svg" xmlns:xlink="http://www.w3.org/1999/xlink" x="0px" y="0px"
	 width="100px" height="100px" fill="#f2ba57" viewBox="0 0 100 100" enable-background="new 0 0 100 100" xml:space="preserve">
<path d="M75.847,83.333l4.026-20.13c0.716-3.594-1.692-6.536-5.361-6.536H25.487c-3.667,0-6.079,2.942-5.36,6.536l4.027,20.13H10V90
	h80v-6.667H75.847z M26.952,63.333h46.095l-4.001,20H30.952L26.952,63.333z"/>
<rect x="46.667" y="70" width="6.667" height="6.667"/>
<path fill="#f2ba57" d="M75.176,32.588L70,30c0-11.046-8.952-20-20-20c-11.046,0-20,8.954-20,20l-5.176,2.588c-0.82,0.41-1.491,1.496-1.491,2.412
	v6.667c0,0.917,0.67,2.002,1.491,2.412L30,46.667h6.667V30c0-7.352,5.981-13.333,13.333-13.333c7.354,0,13.333,5.981,13.333,13.333
	v13.452c-5.078,2.083-10.742,3.213-16.667,3.213v6.668c11.715,0,22.321-3.821,30-10.001V35
	C76.667,34.083,75.996,32.998,75.176,32.588z"/>
</svg>
